<?xml version="1.0" encoding="UTF-8"?>
<svg version="1.1" viewBox="0 0 2048 1056" width="1280" height="1280" xmlns="http://www.w3.org/2000/svg">
<path transform="translate(0)" d="m0 0h2048v1056h-2048z" fill="#F8F8F8"/>
<path transform="translate(1358,191)" d="m0 0h173l454 1 5 1 1 13 1 37v20h-227l-154 1-70-1h-201l-22 2-16 5-16 6-19 10-13 9-10 8-9 9-5 8-7 16-2 6-1 14 2 15 6 18 9 21 8 15 11 15 10 12 9 11 11 14 60 60 11 9 7 7 8 7 16 13 13 12 14 11 13 12 9 7 10 9 11 10 11 9 14 15 8 10 8 13 11 23 7 20 3 14 1 18-3 14-8 16-10 11-20 12-12 5-28 8-19 2-57 1h-81l-157-2-14-3-25-10-15-9-12-11-9-11-6-10-4-13-1-135v-283l-3-12-7-12-9-10-8-7-13-8-17-7-19-4-27-2h-613l-2-1 1-62 1-1 24-1 648-1 17 4 25 9 23 11 19 12 14 12 7 7 9 11 9 13 7 14 8 25 2 1 2-12 7-16 9-15 9-11 12-13 8-8 17-13 15-10 23-12 26-11 18-6 26-6 21-3 9-1z" fill="#0190E3"/>
<path transform="translate(1368,277)" d="m0 0h54l572 1 1 1 1 33v29l-16 1-223 1h-203l-121-3h-39l-16 3-17 8-8 6-2 4 1 7 11 18 12 14 12 12 7 6 7 8 20 20 7 8 6 7 13 13 7 8 13 14 9 11 11 12 7 8 18 20 11 12 9 10 7 8 12 12 9 11 7 7 7 8 14 15 7 8 13 14 7 8 10 12 7 12 4 12 8 50v35l-7 24-8 16-8 11-10 11-14 11-15 10-16 8-20 8-26 8-28 6-24 3-16 1h-327l-34-2-37-5-21-5-23-8-21-10-11-8-10-9-9-11-9-15-8-19-6-21-3-16-1-11-1-47v-83l1-219-4-22-6-12-7-9-7-6-15-7-5-1-14-1-352 1h-121l-78-1-1-63h284l348 1 18 3 21 6 9 5 6 5 7 14 7 19v24l-2 24-1 97v256l2 14 6 17 6 11 6 8 9 9 18 13 19 9 21 7 15 4 6 2 19 1h313l15-4 25-10 16-8 14-9 12-10 8-10 8-14 4-11 1-5-1-13-5-21-6-16-6-11-10-15-8-10-18-20-43-43-7-8-16-17-15-16-24-26-11-12-7-8-13-13-9-11-13-13-7-8-10-10-7-8-16-17-39-39-4-9-6-19-1-5v-14l3-12 6-11 11-13 12-11 18-12 16-8 13-7 3-2z" fill="#0190E3"/>
<path transform="translate(671,438)" d="m0 0 21 2 33 2 32 1 15 1v3l-11 9-16 15-26 26-9 11-14 15-7 8-14 15-7 8-9 10-7 8-9 10-11 12-7 8-9 9-7 8-7 7-7 8-12 12-7 8-9 9-7 8-13 15-11 14-10 14-8 13-5 11-4 13-2 11v16l3 12 6 12 8 10 10 8 16 8 18 7 20 5 39 7 17 2 16 1 55 1h212l1 1v57l-32 1h-272l-34-1-19-3-21-6-25-10-19-10-18-12-11-9-10-9-9-9-10-14-10-19-5-13-3-12-2-14v-22l4-22 8-24 9-17 10-13 9-10 9-11 16-16 6-8 12-12 7-8 14-15 7-8 11-12 14-15 9-10 12-13 15-16 13-14 7-8 7-7 7-8 13-15 9-11 9-10 5-5z" fill="#0190E3"/>
<path transform="translate(1131,404)" d="m0 0 4 2 11 26 12 23 9 12 12 13 9 9 8 7 13 11 10 9 11 9 7 7 11 9 16 15 8 7 11 10 8 7 20 18 15 14 3 2v2l4 2 33 33 9 11 8 8 9 11 13 16 12 17 8 17 2 8v10l-4 7-8 6-11 3-272 1-1-3-1-112v-117l1-116z" fill="#F9F9F9"/>
<path transform="translate(204,215)" d="m0 0h79l1 1 1 284v405l-1 1h-79l-1-11-1-559v-120z" fill="#0190E3"/>
<path transform="translate(98,215)" d="m0 0h80l1 1v690h-44l-37-1z" fill="#0190E3"/>
<path transform="translate(822,435)" d="m0 0h35l59 2v3l-12 13-17 17-6 5-54 54-7 8-91 91-8 7-75 75-9 11-8 13-1 3v7l4 5 14 7 22 5 19 2 32 1 154 1 54 1 1 1v58l-32 1h-203l-41-1-14-2-26-7-25-9-18-8-11-7-10-9-7-10-3-10v-9l3-15 5-12 11-16 12-14 7-7 7-8 45-45 7-6 7-8 29-29 7-8 26-26 7-8 16-15 28-28 7-8 10-10 8-7 14-15 4-2 2-4 8-8 9-11z" fill="#0190E3"/>
<path transform="translate(1724,368)" d="m0 0h7l1 1 1 17v388l-1 131h-80l-1-1v-534l2-1z" fill="#0190E3"/>
<path transform="translate(1785,369)" d="m0 0h51l1 2v533l-1 1-14 1h-46l-19-1-1-9v-526z" fill="#0190E3"/>
<path transform="translate(418,465)" d="m0 0h79l1 38v33h-117l-50-1-8-1v-66l1-2z" fill="#0190E3"/>
<path transform="translate(323,559)" d="m0 0h174l1 1-1 68-43 1h-69l-62-1z" fill="#0190E3"/>
</svg>
